<svg xmlns="http://www.w3.org/2000/svg" xmlns:svg="http://www.w3.org/2000/svg" id="svg27" width="43.667" height="46.731" version="1.1" viewBox="0 0 43.667 46.731"><metadata id="metadata31"/><title id="title2">Totle Logo</title><desc id="desc4">Created with Sketch.</desc><defs id="defs11"><linearGradient id="linearGradient-1" x1="19" x2="19" y1="0" y2="38" gradientUnits="userSpaceOnUse"><stop id="stop6" offset="0%" stop-color="#00B8FF"/><stop id="stop8" offset="100%" stop-color="#0098EB"/></linearGradient><clipPath id="clipPath3738" clipPathUnits="userSpaceOnUse"><rect style="fill:none;fill-opacity:1" id="rect3740" width="52.477" height="52.094" x="-6.512" y="-6.816"/></clipPath><clipPath id="clipPath4555" clipPathUnits="userSpaceOnUse"><rect style="fill:none;fill-opacity:1" id="rect4557" width="43.667" height="46.731" x="-2.681" y="-3.368"/></clipPath><clipPath id="clipPath4559" clipPathUnits="userSpaceOnUse"><rect style="fill:none;fill-opacity:1" id="rect4561" width="43.667" height="46.731" x="-2.681" y="-3.368"/></clipPath></defs><g id="Symbols" clip-path="url(#clipPath4559)" transform="translate(2.6812866,3.3684211)" style="fill:none;fill-rule:evenodd;stroke:none;stroke-width:1"><g id="Footer" transform="translate(-132,-336)"><g id="Totle-Logo" transform="translate(0,272)"><g id="g22" transform="translate(132,64)"><g id="g20"><g id="Totle-logo-horizontal-vers-Copy" style="fill-rule:nonzero"><g id="g16"><g id="logo-1"><rect id="Rectangle" width="38" height="38" x="0" y="0" rx="4" style="fill:url(#linearGradient-1)"/><polygon id="Combined-Shape" points="5.7 20.286 5.7 9.5 32.3 9.5 32.3 20.286 32.179 20.4 26.755 25.556 22.677 29.442 22.677 15.264 27.59 15.264 27.59 17.721 27.19 17.721 25.358 17.721 25.358 23.572 29.806 19.225 29.806 11.959 21.809 11.958 20.321 11.958 20.321 31.668 19.003 32.933 17.64 31.634 17.64 11.958 16.19 11.958 8.194 11.959 8.194 19.225 12.635 23.564 12.635 17.807 10.408 17.807 10.408 15.349 15.315 15.349 15.315 29.435 14.635 28.787 11.237 25.549" style="fill:#fff"/></g></g></g><path id="TOTLE" d="M 58.962032,13.924731 H 54 V 11.41129 h 12.805244 v 2.513441 H 61.843212 V 27.58871 h -2.88118 z m 10.372079,5.52957 c 0,-1.294809 0.217229,-2.463928 0.651695,-3.507392 0.434466,-1.043464 1.036611,-1.930776 1.806454,-2.661963 0.769843,-0.731186 1.684494,-1.294801 2.743981,-1.69086 C 75.595728,11.198027 76.750475,11 78.000517,11 c 1.265286,0 2.431467,0.198027 3.498576,0.594086 1.067109,0.396059 1.989382,0.959674 2.766847,1.69086 0.777465,0.731187 1.383422,1.618499 1.817887,2.661963 0.434466,1.043464 0.651696,2.212583 0.651696,3.507392 0,1.264343 -0.21723,2.41823 -0.651696,3.461694 -0.434465,1.043464 -1.040422,1.9422 -1.817887,2.696236 -0.777465,0.754036 -1.699738,1.3405 -2.766847,1.759409 C 80.431984,27.790549 79.265803,28 78.000517,28 76.750475,28 75.595728,27.790549 74.536241,27.37164 73.476754,26.952731 72.562103,26.366267 71.79226,25.612231 71.022417,24.858195 70.420272,23.959459 69.985806,22.915995 69.55134,21.872531 69.334111,20.718644 69.334111,19.454301 Z m 3.132711,0 c 0,0.868284 0.133387,1.664199 0.400164,2.387769 0.266777,0.72357 0.647882,1.351924 1.143325,1.88508 0.495444,0.533157 1.082345,0.948252 1.760722,1.245296 0.678376,0.297045 1.429152,0.445565 2.25235,0.445565 0.823199,0 1.577786,-0.14852 2.263785,-0.445565 0.685999,-0.297044 1.276711,-0.712139 1.772154,-1.245296 0.495444,-0.533156 0.876548,-1.16151 1.143325,-1.88508 0.266778,-0.72357 0.400164,-1.519485 0.400164,-2.387769 0,-0.837818 -0.133386,-1.614692 -0.400164,-2.330645 -0.266777,-0.715954 -0.64407,-1.340499 -1.131892,-1.873656 -0.487821,-0.533157 -1.074722,-0.952059 -1.760721,-1.25672 -0.685998,-0.304661 -1.448208,-0.45699 -2.286651,-0.45699 -0.838442,0 -1.596841,0.152329 -2.275217,0.45699 -0.678377,0.304661 -1.261467,0.723563 -1.749288,1.25672 -0.487821,0.533157 -0.865115,1.157702 -1.131892,1.873656 -0.266777,0.715953 -0.400164,1.492827 -0.400164,2.330645 z m 21.759599,-5.52957 H 89.264389 V 11.41129 h 12.805241 v 2.513441 H 97.107601 V 27.58871 h -2.88118 z M 106.06196,11.41129 h 2.88118 v 13.61828 h 6.88281 v 2.55914 h -9.76399 z m 13.80205,0 h 10.72439 v 2.513441 h -7.84321 v 4.112903 h 7.43162 v 2.422043 h -7.43162 V 25.02957 H 131 v 2.55914 h -11.13599 z" style="fill:#1b465c;fill-rule:nonzero"/></g></g></g></g></g><rect style="fill:none;fill-opacity:1" id="rect4551" width="43.667" height="46.731" x="-2.681" y="-3.368" clip-path="url(#clipPath4555)" transform="translate(2.6812866,3.3684211)"/></svg>